<svg xmlns="http://www.w3.org/2000/svg" xmlns:xlink="http://www.w3.org/1999/xlink" width="800" zoomAndPan="magnify" viewBox="0 0 600 449.999984" height="600" preserveAspectRatio="xMidYMid meet" version="1.0"><defs><g/><clipPath id="f5ff25c478"><path d="M 575 187 L 600 187 L 600 237 L 575 237 Z M 575 187 " clip-rule="nonzero"/></clipPath><clipPath id="69b1c3f006"><path d="M 0 187 L 25 187 L 25 237 L 0 237 Z M 0 187 " clip-rule="nonzero"/></clipPath><clipPath id="1cb6059cff"><path d="M 537 387 L 600 387 L 600 449.992188 L 537 449.992188 Z M 537 387 " clip-rule="nonzero"/></clipPath><clipPath id="9c59b1c883"><path d="M 0 387 L 63 387 L 63 449.992188 L 0 449.992188 Z M 0 387 " clip-rule="nonzero"/></clipPath><clipPath id="0c5e6bd67a"><path d="M 450 424 L 500 424 L 500 449.992188 L 450 449.992188 Z M 450 424 " clip-rule="nonzero"/></clipPath><clipPath id="3b5b43e298"><path d="M 362 424 L 413 424 L 413 449.992188 L 362 449.992188 Z M 362 424 " clip-rule="nonzero"/></clipPath><clipPath id="bff3532834"><path d="M 275 424 L 325 424 L 325 449.992188 L 275 449.992188 Z M 275 424 " clip-rule="nonzero"/></clipPath><clipPath id="7ed062b250"><path d="M 187 424 L 238 424 L 238 449.992188 L 187 449.992188 Z M 187 424 " clip-rule="nonzero"/></clipPath><clipPath id="33c02d1ed5"><path d="M 100 424 L 150 424 L 150 449.992188 L 100 449.992188 Z M 100 424 " clip-rule="nonzero"/></clipPath><clipPath id="f853bce4a2"><path d="M 0 212.992188 L 25 212.992188 L 25 263 L 0 263 Z M 0 212.992188 " clip-rule="nonzero"/></clipPath><clipPath id="e4af040ec7"><path d="M 575 212.992188 L 600 212.992188 L 600 263 L 575 263 Z M 575 212.992188 " clip-rule="nonzero"/></clipPath></defs><rect x="-60" width="720" fill="#ffffff" y="-44.999998" height="539.99998" fill-opacity="1"/><rect x="-60" width="720" fill="#00bf63" y="-44.999998" height="539.99998" fill-opacity="1"/><path fill="#000000" d="M 25 25 L 62.5 25 L 62.5 0 L 0 0 L 0 62.5 L 25 62.5 Z M 25 25 " fill-opacity="1" fill-rule="nonzero"/><path fill="#000000" d="M 537.5 25 L 575 25 L 575 62.5 L 600 62.5 L 600 0 L 537.5 0 Z M 537.5 25 " fill-opacity="1" fill-rule="nonzero"/><path fill="#000000" d="M 100 0 L 150 0 L 150 25 L 100 25 Z M 100 0 " fill-opacity="1" fill-rule="nonzero"/><path fill="#000000" d="M 187.5 0 L 237.5 0 L 237.5 25 L 187.5 25 Z M 187.5 0 " fill-opacity="1" fill-rule="nonzero"/><path fill="#000000" d="M 275 0 L 325 0 L 325 25 L 275 25 Z M 275 0 " fill-opacity="1" fill-rule="nonzero"/><path fill="#000000" d="M 362.5 0 L 412.5 0 L 412.5 25 L 362.5 25 Z M 362.5 0 " fill-opacity="1" fill-rule="nonzero"/><path fill="#000000" d="M 450 0 L 500 0 L 500 25 L 450 25 Z M 450 0 " fill-opacity="1" fill-rule="nonzero"/><path fill="#000000" d="M 575 100 L 600 100 L 600 150 L 575 150 Z M 575 100 " fill-opacity="1" fill-rule="nonzero"/><g clip-path="url(#f5ff25c478)"><path fill="#000000" d="M 575 187.5 L 600 187.5 L 600 237.5 L 575 237.5 Z M 575 187.5 " fill-opacity="1" fill-rule="nonzero"/></g><path fill="#000000" d="M 0 100 L 25 100 L 25 150 L 0 150 Z M 0 100 " fill-opacity="1" fill-rule="nonzero"/><g clip-path="url(#69b1c3f006)"><path fill="#000000" d="M 0 187.5 L 25 187.5 L 25 237.5 L 0 237.5 Z M 0 187.5 " fill-opacity="1" fill-rule="nonzero"/></g><g fill="#000000" fill-opacity="1"><g transform="translate(111.02344, 255.74998)"><g><path d="M 54.25 -57.71875 L 54.25 -20.375 C 54.25 -16.113281 53.296875 -12.375 51.390625 -9.15625 C 49.484375 -5.945312 46.722656 -3.484375 43.109375 -1.765625 C 39.503906 -0.0546875 35.242188 0.796875 30.328125 0.796875 C 22.898438 0.796875 17.132812 -1.101562 13.03125 -4.90625 C 8.925781 -8.71875 6.875 -13.925781 6.875 -20.53125 L 6.875 -57.71875 L 19.0625 -57.71875 L 19.0625 -22.390625 C 19.0625 -17.941406 19.957031 -14.675781 21.75 -12.59375 C 23.539062 -10.507812 26.503906 -9.46875 30.640625 -9.46875 C 34.640625 -9.46875 37.539062 -10.515625 39.34375 -12.609375 C 41.144531 -14.703125 42.046875 -17.988281 42.046875 -22.46875 L 42.046875 -57.71875 Z M 54.25 -57.71875 "/></g></g></g><g fill="#000000" fill-opacity="1"><g transform="translate(172.132894, 255.74998)"><g><path d="M 58.46875 0 L 42.921875 0 L 17.8125 -43.671875 L 17.453125 -43.671875 C 17.953125 -35.953125 18.203125 -30.445312 18.203125 -27.15625 L 18.203125 0 L 7.265625 0 L 7.265625 -57.71875 L 22.703125 -57.71875 L 47.765625 -14.484375 L 48.046875 -14.484375 C 47.648438 -21.992188 47.453125 -27.300781 47.453125 -30.40625 L 47.453125 -57.71875 L 58.46875 -57.71875 Z M 58.46875 0 "/></g></g></g><g fill="#000000" fill-opacity="1"><g transform="translate(237.861092, 255.74998)"><g><path d="M 7.265625 0 L 7.265625 -57.71875 L 19.5 -57.71875 L 19.5 0 Z M 7.265625 0 "/></g></g></g><g fill="#000000" fill-opacity="1"><g transform="translate(264.626086, 255.74998)"><g><path d="M 42.59375 0 L 38.421875 -13.734375 L 17.375 -13.734375 L 13.1875 0 L 0 0 L 20.375 -57.953125 L 35.34375 -57.953125 L 55.78125 0 Z M 35.5 -24 C 31.625 -36.457031 29.441406 -43.5 28.953125 -45.125 C 28.472656 -46.757812 28.125 -48.050781 27.90625 -49 C 27.039062 -45.625 24.554688 -37.289062 20.453125 -24 Z M 35.5 -24 "/></g></g></g><g fill="#000000" fill-opacity="1"><g transform="translate(320.406221, 255.74998)"><g><path d="M 7.265625 0 L 7.265625 -57.71875 L 19.5 -57.71875 L 19.5 -10.109375 L 42.921875 -10.109375 L 42.921875 0 Z M 7.265625 0 "/></g></g></g><g fill="#000000" fill-opacity="1"><g transform="translate(366.080412, 255.74998)"><g><path d="M 29.171875 -32.421875 L 52.078125 -32.421875 L 52.078125 -2.484375 C 48.367188 -1.273438 44.875 -0.425781 41.59375 0.0625 C 38.3125 0.550781 34.960938 0.796875 31.546875 0.796875 C 22.835938 0.796875 16.1875 -1.757812 11.59375 -6.875 C 7 -12 4.703125 -19.351562 4.703125 -28.9375 C 4.703125 -38.257812 7.363281 -45.523438 12.6875 -50.734375 C 18.019531 -55.941406 25.410156 -58.546875 34.859375 -58.546875 C 40.785156 -58.546875 46.5 -57.363281 52 -55 L 47.9375 -45.203125 C 43.71875 -47.304688 39.332031 -48.359375 34.78125 -48.359375 C 29.488281 -48.359375 25.25 -46.582031 22.0625 -43.03125 C 18.882812 -39.476562 17.296875 -34.703125 17.296875 -28.703125 C 17.296875 -22.441406 18.578125 -17.65625 21.140625 -14.34375 C 23.703125 -11.039062 27.429688 -9.390625 32.328125 -9.390625 C 34.890625 -9.390625 37.484375 -9.65625 40.109375 -10.1875 L 40.109375 -22.234375 L 29.171875 -22.234375 Z M 29.171875 -32.421875 "/></g></g></g><g fill="#000000" fill-opacity="1"><g transform="translate(424.623895, 255.74998)"><g><path d="M 59.65625 -28.9375 C 59.65625 -19.382812 57.285156 -12.039062 52.546875 -6.90625 C 47.804688 -1.769531 41.015625 0.796875 32.171875 0.796875 C 23.328125 0.796875 16.535156 -1.769531 11.796875 -6.90625 C 7.066406 -12.039062 4.703125 -19.410156 4.703125 -29.015625 C 4.703125 -38.628906 7.078125 -45.96875 11.828125 -51.03125 C 16.578125 -56.09375 23.382812 -58.625 32.25 -58.625 C 41.125 -58.625 47.910156 -56.070312 52.609375 -50.96875 C 57.304688 -45.863281 59.65625 -38.519531 59.65625 -28.9375 Z M 17.53125 -28.9375 C 17.53125 -22.488281 18.753906 -17.628906 21.203125 -14.359375 C 23.648438 -11.097656 27.304688 -9.46875 32.171875 -9.46875 C 41.941406 -9.46875 46.828125 -15.957031 46.828125 -28.9375 C 46.828125 -41.9375 41.96875 -48.4375 32.25 -48.4375 C 27.382812 -48.4375 23.710938 -46.796875 21.234375 -43.515625 C 18.765625 -40.242188 17.53125 -35.382812 17.53125 -28.9375 Z M 17.53125 -28.9375 "/></g></g></g><g clip-path="url(#1cb6059cff)"><path fill="#000000" d="M 575 424.992188 L 537.5 424.992188 L 537.5 449.992188 L 600 449.992188 L 600 387.492188 L 575 387.492188 Z M 575 424.992188 " fill-opacity="1" fill-rule="nonzero"/></g><g clip-path="url(#9c59b1c883)"><path fill="#000000" d="M 62.5 424.992188 L 25 424.992188 L 25 387.492188 L 0 387.492188 L 0 449.992188 L 62.5 449.992188 Z M 62.5 424.992188 " fill-opacity="1" fill-rule="nonzero"/></g><g clip-path="url(#0c5e6bd67a)"><path fill="#000000" d="M 500 449.992188 L 450 449.992188 L 450 424.992188 L 500 424.992188 Z M 500 449.992188 " fill-opacity="1" fill-rule="nonzero"/></g><g clip-path="url(#3b5b43e298)"><path fill="#000000" d="M 412.5 449.992188 L 362.5 449.992188 L 362.5 424.992188 L 412.5 424.992188 Z M 412.5 449.992188 " fill-opacity="1" fill-rule="nonzero"/></g><g clip-path="url(#bff3532834)"><path fill="#000000" d="M 325 449.992188 L 275 449.992188 L 275 424.992188 L 325 424.992188 Z M 325 449.992188 " fill-opacity="1" fill-rule="nonzero"/></g><g clip-path="url(#7ed062b250)"><path fill="#000000" d="M 237.5 449.992188 L 187.5 449.992188 L 187.5 424.992188 L 237.5 424.992188 Z M 237.5 449.992188 " fill-opacity="1" fill-rule="nonzero"/></g><g clip-path="url(#33c02d1ed5)"><path fill="#000000" d="M 150 449.992188 L 100 449.992188 L 100 424.992188 L 150 424.992188 Z M 150 449.992188 " fill-opacity="1" fill-rule="nonzero"/></g><path fill="#000000" d="M 25 349.992188 L 0 349.992188 L 0 299.992188 L 25 299.992188 Z M 25 349.992188 " fill-opacity="1" fill-rule="nonzero"/><g clip-path="url(#f853bce4a2)"><path fill="#000000" d="M 25 262.492188 L 0 262.492188 L 0 212.492188 L 25 212.492188 Z M 25 262.492188 " fill-opacity="1" fill-rule="nonzero"/></g><path fill="#000000" d="M 600 349.992188 L 575 349.992188 L 575 299.992188 L 600 299.992188 Z M 600 349.992188 " fill-opacity="1" fill-rule="nonzero"/><g clip-path="url(#e4af040ec7)"><path fill="#000000" d="M 600 262.492188 L 575 262.492188 L 575 212.492188 L 600 212.492188 Z M 600 262.492188 " fill-opacity="1" fill-rule="nonzero"/></g></svg>